<?xml version="1.0" encoding="UTF-8"?>
<svg id="Calque_2" data-name="Calque 2" xmlns="http://www.w3.org/2000/svg" viewBox="0 0 150.06 300.39">
  <defs>
    <style>
      .cls-1 {
        fill: #1d1d1b;
        stroke-width: 0px;
      }
    </style>
  </defs>
  <g id="Calque_1-2" data-name="Calque 1">
    <g>
      <path class="cls-1" d="m27.86,2.25c3.24.01,6.48.03,9.72.04,7.78.03,15.56.07,23.34.1l28.1.12c8.13.04,16.27.07,24.4.11,3.93.02,7.93.26,11.85.05.05,0,.11,0,.16,0,1.67,0,2.21-2.16.24-2.17-3.24-.01-6.48-.03-9.72-.04-7.78-.03-15.56-.07-23.34-.1l-28.1-.12c-8.13-.04-16.27-.07-24.4-.11-3.93-.02-7.93-.26-11.85-.05-.05,0-.11,0-.16,0-1.67,0-2.21,2.16-.24,2.17h0Z"/>
      <path class="cls-1" d="m.83,300.39c9.34,0,18.68,0,28.02,0,14.79,0,29.57,0,44.36,0,3.4,0,6.81,0,10.21,0,.55,0,1.63-.21,1.92-.75s-.25-.7-.74-.7c-9.34,0-18.68,0-28.02,0-14.79,0-29.57,0-44.36,0-3.4,0-6.81,0-10.21,0-.55,0-1.63.21-1.92.75s.25.7.74.7h0Z"/>
      <path class="cls-1" d="m30,299.01c0-2.67-.01-5.34-.02-8.01-.01-7.2-.03-14.41-.04-21.61-.02-10.72-.04-21.45-.06-32.17-.02-12.99-.05-25.99-.07-38.98l-.08-42.99c-.03-14.37-.05-28.73-.08-43.1-.03-13.49-.05-26.97-.08-40.46-.02-11.32-.04-22.64-.06-33.96-.02-8.2-.03-16.39-.05-24.59,0-3.86.02-7.72-.02-11.57,0-.17,0-.34,0-.51,0-1.5-2.94-1.05-2.93.23,0,2.67.01,5.34.02,8.01.01,7.2.03,14.41.04,21.61.02,10.72.04,21.45.06,32.17.02,12.99.05,25.99.07,38.98.03,14.33.05,28.66.08,42.99.03,14.37.05,28.73.08,43.1.03,13.49.05,26.97.08,40.46.02,11.32.04,22.64.06,33.96.02,8.2.03,16.39.05,24.59,0,3.86-.02,7.72.02,11.57,0,.17,0,.34,0,.51,0,1.5,2.94,1.05,2.93-.23h0Z"/>
      <path class="cls-1" d="m29.56,59.13c5.51-6.33,11.03-12.66,16.54-18.99,8.82-10.12,17.64-20.25,26.46-30.37,2.02-2.31,4.03-4.63,6.05-6.94.47-.54.21-1.24-.4-1.5-.69-.3-1.58,0-2.05.55-5.51,6.33-11.03,12.66-16.54,18.99-8.82,10.12-17.64,20.25-26.46,30.37-2.02,2.31-4.03,4.63-6.05,6.94-.47.54-.21,1.24.4,1.5.69.3,1.58,0,2.05-.55h0Z"/>
      <path class="cls-1" d="m123.26,1.97c0,3.61.02,7.22.02,10.83l.05,25.87c.02,10.47.04,20.94.07,31.41.02,9.02.04,18.03.06,27.05,0,2.97.01,5.95.02,8.92v2.8c0,.41-.12,1.06,0,1.45.02.05,0,.14,0,.19,0,.37,2.9,0,2.9-.78,0-3.61-.02-7.22-.02-10.83l-.05-25.87c-.02-10.47-.04-20.94-.07-31.41-.02-9.02-.04-18.03-.06-27.05,0-2.97-.01-5.95-.02-8.92v-2.8c0-.41.12-1.06,0-1.45-.02-.05,0-.14,0-.19,0-.37-2.9,0-2.9.78h0Z"/>
      <path class="cls-1" d="m140.46,127.74c-.07,6.62-4.08,13.18-10.45,15.45s-13.57-.58-17.59-5.75c-4.19-5.38-4.68-13-1.3-18.9,3.41-5.95,10.09-9.05,16.78-7.28,7.43,1.97,12.48,8.87,12.56,16.48,0,.56,2.91.11,2.9-.78-.08-7.63-5.13-14.45-12.45-16.7s-15.87.24-20.76,6.05c-4.95,5.87-5.59,14.54-1.31,20.97s12.1,9.1,19.53,7.46c8.48-1.87,14.9-8.95,14.99-17.77,0-.55-2.89-.12-2.9.78Z"/>
      <path class="cls-1" d="m123.21,144.77c.01,8.37.02,16.75.03,25.12.02,13.25.03,26.51.05,39.76,0,3.07,0,6.13.01,9.2,0,1.26,2.91.68,2.9-.34-.01-8.37-.02-16.75-.03-25.12-.02-13.25-.03-26.51-.05-39.76,0-3.07,0-6.13-.01-9.2,0-1.26-2.91-.68-2.9.34h0Z"/>
      <path class="cls-1" d="m123.3,163c-7.12,5.5-14.24,11-21.36,16.51-1.02.79-2.03,1.57-3.05,2.36-.5.38-.28.82.26.95.67.16,1.52-.14,2.05-.55,7.12-5.5,14.24-11,21.36-16.51,1.02-.79,2.03-1.57,3.05-2.36.5-.38.28-.82-.26-.95-.67-.16-1.52.14-2.05.55h0Z"/>
      <path class="cls-1" d="m123.51,217.03c-7.12,5.5-14.24,11-21.36,16.51-1.02.79-2.03,1.57-3.05,2.36-1.55,1.2.83,1.92,1.87,1.12,7.12-5.5,14.24-11,21.36-16.51,1.02-.79,2.03-1.57,3.05-2.36,1.55-1.2-.83-1.92-1.87-1.12h0Z"/>
      <path class="cls-1" d="m122.82,163.76c7.12,5.5,14.24,11,21.36,16.51,1.02.79,2.03,1.57,3.05,2.36.79.61,3.46-.53,2.69-1.12-7.12-5.5-14.24-11-21.36-16.51-1.02-.79-2.03-1.57-3.05-2.36-.79-.61-3.46.53-2.69,1.12h0Z"/>
      <path class="cls-1" d="m122.81,217.75c7.12,5.5,14.24,11,21.36,16.51,1.02.79,2.03,1.57,3.05,2.36.65.5,3.22-.63,2.72-1.01-7.12-5.5-14.24-11-21.36-16.51-1.02-.79-2.03-1.57-3.05-2.36-.65-.5-3.22.63-2.72,1.01h0Z"/>
    </g>
  </g>
</svg>